<?xml version="1.0" encoding="UTF-8" standalone="yes"?>
<!-- Created with sK1/UniConvertor (http://sk1project.org/) -->
<svg xmlns="http://www.w3.org/2000/svg" xmlns:xlink="http://www.w3.org/1999/xlink"
  width="595.276pt" height="841.89pt" viewBox="0 0 595.276 841.89"
  fill-rule="evenodd">
<g>
<path style="stroke:#000000; stroke-width:0.850394; stroke-linejoin:round; stroke-linecap:round; fill:none" d="M 146.878 915.408L 236.124 911.598"/>
<path style="stroke:#000000; stroke-width:0.850394; stroke-linejoin:round; stroke-linecap:round; fill:none" d="M 146.1 663.529L 163.207 677.031"/>
<path style="stroke:#000000; stroke-width:0.850394; stroke-linejoin:round; stroke-linecap:round; fill:none" d="M 163.207 677.031L 168.009 698.907"/>
<path style="stroke:#000000; stroke-width:0.850394; stroke-linejoin:round; stroke-linecap:round; fill:none" d="M 168.009 698.907L 182.577 779.342"/>
<path style="stroke:#000000; stroke-width:0.850394; stroke-linejoin:round; stroke-linecap:round; fill:none" d="M 182.577 779.342L 203.142 842.322"/>
<path style="stroke:#000000; stroke-width:0.850394; stroke-linejoin:round; stroke-linecap:round; fill:none" d="M 203.142 842.322L 219.369 884.761"/>
<path style="stroke:#000000; stroke-width:0.850394; stroke-linejoin:round; stroke-linecap:round; fill:none" d="M 219.369 884.761L 219.677 885.428C 219.882 885.873 220.191 886.535 220.603 887.414C 221.016 888.293 221.535 889.377 222.16 890.665C 222.785 891.953 223.521 893.424 224.368 895.077C 225.215 896.731 226.185 898.51 227.277 900.416C 228.37 902.322 229.375 903.932 230.293 905.248C 231.211 906.563 232.032 907.625 232.758 908.434C 233.484 909.244 234.098 909.873 234.601 910.321C 235.104 910.769 235.483 911.094 235.74 911.296L 236.124 911.598"/>
<path style="stroke:#000000; stroke-width:0.850394; stroke-linejoin:round; stroke-linecap:round; fill:none" d="M 30.9587 944.574L 31.1166 944.347C 31.2219 944.196 31.4059 943.962 31.6687 943.644C 31.9315 943.326 32.3384 942.905 32.8894 942.38C 33.4404 941.855 34.241 941.195 35.2914 940.399C 36.3417 939.603 37.7629 938.646 39.5549 937.528C 41.347 936.41 43.2937 935.293 45.3951 934.178C 47.4965 933.063 49.5671 932.08 51.6068 931.23C 53.6465 930.38 55.6828 929.594 57.7159 928.871C 59.7489 928.148 61.871 927.363 64.0822 926.515C 66.2934 925.667 68.6983 924.63 71.2969 923.404C 73.8954 922.177 76.7123 920.728 79.7476 919.055C 82.7828 917.383 85.9046 915.624 89.1128 913.778C 92.3211 911.932 95.5369 910.062 98.7603 908.168C 101.984 906.274 105.145 904.403 108.245 902.554C 111.345 900.705 114.336 898.896 117.219 897.129C 120.101 895.362 122.581 893.81 124.659 892.472C 126.737 891.135 128.482 889.985 129.895 889.022C 131.308 888.06 132.453 887.267 133.329 886.643C 134.205 886.019 134.853 885.553 135.275 885.245L 135.907 884.784"/>
<path style="stroke:#000000; stroke-width:0.850394; stroke-linejoin:round; stroke-linecap:round; fill:none" d="M 30.9587 944.574L 30.7774 944.164C 30.6566 943.891 30.4767 943.458 30.2379 942.866C 29.9991 942.274 29.7049 941.466 29.3554 940.44C 29.0059 939.415 28.6068 938.081 28.1582 936.438C 27.7096 934.795 27.2205 932.723 26.6908 930.22C 26.1611 927.717 25.6497 925.005 25.1567 922.085C 24.6636 919.165 24.1946 916.073 23.7496 912.808C 23.3046 909.543 22.8914 906.156 22.5102 902.649C 22.129 899.141 21.7884 895.568 21.4884 891.93C 21.1884 888.292 20.9374 884.642 20.7355 880.981C 20.5335 877.32 20.3874 873.691 20.2973 870.093C 20.2071 866.495 20.1767 862.949 20.206 859.457C 20.2353 855.965 20.3258 852.528 20.4775 849.144C 20.6293 845.761 20.8435 842.423 21.1202 839.129C 21.3969 835.835 21.7391 832.571 22.1467 829.336C 22.5544 826.1 23.0337 822.881 23.5848 819.677C 24.1359 816.473 24.771 813.28 25.4899 810.098C 26.2088 806.916 27.0285 803.751 27.9488 800.603C 28.8692 797.455 29.908 794.333 31.0652 791.239C 32.2224 788.144 33.5133 785.089 34.938 782.071C 36.3626 779.053 37.9308 776.083 39.6426 773.159C 41.3544 770.236 43.2099 767.361 45.2093 764.534C 47.2086 761.707 49.3435 758.923 51.614 756.182C 53.8846 753.441 56.2776 750.734 58.793 748.06C 61.3084 745.386 63.9308 742.734 66.6602 740.106C 69.3895 737.477 72.2108 734.861 75.1241 732.257C 78.0374 729.653 81.0312 727.055 84.1056 724.462C 87.1799 721.869 90.3285 719.28 93.5514 716.694C 96.7743 714.107 100.069 711.525 103.435 708.947C 106.801 706.369 110.238 703.797 113.747 701.233C 117.256 698.668 120.473 696.367 123.396 694.332C 126.32 692.296 128.912 690.52 131.172 689.005C 133.432 687.49 135.331 686.23 136.867 685.226C 138.404 684.221 139.56 683.469 140.336 682.968L 141.5 682.216"/>
<path style="stroke:#000000; stroke-width:0.850394; stroke-linejoin:round; stroke-linecap:round; fill:none" d="M 135.907 884.784L 135.608 883.581C 135.409 882.78 135.113 881.586 134.721 880.001C 134.328 878.416 133.846 876.46 133.273 874.134C 132.701 871.808 132.05 869.148 131.32 866.152C 130.59 863.156 129.797 859.873 128.94 856.302C 128.083 852.732 127.255 849.245 126.454 845.841C 125.653 842.438 124.879 839.108 124.133 835.852C 123.386 832.596 122.666 829.397 121.971 826.255C 121.277 823.112 120.605 819.998 119.957 816.911C 119.308 813.825 118.681 810.732 118.074 807.632C 117.467 804.533 116.882 801.394 116.32 798.215C 115.758 795.037 115.225 791.794 114.721 788.487C 114.218 785.18 113.76 781.8 113.348 778.346C 112.937 774.893 112.598 771.378 112.332 767.803C 112.066 764.227 111.906 760.615 111.852 756.967C 111.797 753.319 111.882 749.666 112.108 746.009C 112.333 742.353 112.729 738.724 113.297 735.124C 113.865 731.524 114.628 727.979 115.586 724.49C 116.544 721.001 117.71 717.584 119.084 714.238C 120.458 710.893 122.045 707.628 123.845 704.445C 125.646 701.261 127.437 698.463 129.219 696.052C 131.001 693.64 132.656 691.568 134.183 689.835C 135.711 688.103 137.026 686.676 138.128 685.555C 139.231 684.433 140.069 683.597 140.641 683.045L 141.5 682.216"/>
<path style="stroke:#000000; stroke-width:0.850394; stroke-linejoin:round; stroke-linecap:round; fill:none" d="M 25.5083 923.882L 25.2701 922.968C 25.1113 922.358 24.8782 921.45 24.5709 920.242C 24.2635 919.035 23.8947 917.543 23.4645 915.767C 23.0343 913.99 22.5632 911.953 22.0513 909.655C 21.5394 907.357 21.0148 904.83 20.4777 902.073C 19.9406 899.316 19.4543 896.615 19.019 893.971C 18.5836 891.326 18.1977 888.732 17.8614 886.19C 17.525 883.648 17.2356 881.15 16.9932 878.695C 16.7508 876.241 16.5512 873.818 16.3945 871.427C 16.2378 869.036 16.1193 866.662 16.0391 864.307C 15.9588 861.951 15.9128 859.599 15.9011 857.25C 15.8893 854.901 15.9093 852.544 15.961 850.178C 16.0128 847.811 16.0966 845.428 16.2126 843.028C 16.3285 840.628 16.4794 838.207 16.6652 835.765C 16.8511 833.323 17.0767 830.858 17.342 828.37C 17.6073 825.882 17.9186 823.371 18.2758 820.836C 18.633 818.301 19.0432 815.744 19.5064 813.162C 19.9696 810.581 20.4932 807.976 21.0772 805.348C 21.6612 802.719 22.3132 800.069 23.0332 797.396C 23.7531 794.722 24.5485 792.03 25.4191 789.318C 26.2898 786.606 27.2426 783.881 28.2776 781.143C 29.3126 778.404 30.4357 775.663 31.6471 772.919C 32.8584 770.175 34.1627 767.442 35.5598 764.72C 36.957 761.999 38.4502 759.303 40.0393 756.635C 41.6284 753.966 43.3143 751.34 45.0969 748.756C 46.8796 746.172 48.7572 743.643 50.7298 741.171C 52.7023 738.698 54.7647 736.291 56.9169 733.95C 59.0691 731.609 61.3024 729.339 63.6169 727.14C 65.9314 724.94 68.3162 722.812 70.7713 720.757C 73.2265 718.701 75.74 716.717 78.3119 714.802C 80.8837 712.888 83.5022 711.041 86.1673 709.262C 88.8323 707.482 91.5333 705.767 94.2703 704.116C 97.0073 702.464 99.7722 700.873 102.565 699.344C 105.358 697.814 108.173 696.343 111.011 694.93C 113.85 693.517 116.707 692.162 119.584 690.863C 122.461 689.565 125.064 688.441 127.394 687.492C 129.723 686.543 131.77 685.738 133.532 685.077C 135.295 684.415 136.767 683.875 137.949 683.456C 139.131 683.037 140.018 682.726 140.611 682.522L 141.5 682.216"/>
<path style="stroke:#000000; stroke-width:0.850394; stroke-linejoin:round; stroke-linecap:round; fill:none" d="M 146.1 663.529L 146.878 915.408"/>
<path style="stroke:#000000; stroke-width:0.850394; stroke-linejoin:round; stroke-linecap:round; fill:none" d="M 146.318 734.021L 152.988 797.802"/>
<path style="stroke:#000000; stroke-width:0.850394; stroke-linejoin:round; stroke-linecap:round; fill:none" d="M 152.988 797.802L 161.604 860.746"/>
<path style="stroke:#000000; stroke-width:0.850394; stroke-linejoin:round; stroke-linecap:round; fill:none" d="M 161.604 860.746L 178.872 914.042"/>
</g>
</svg>