<?xml version="1.0" encoding="utf-8"?>
<!-- Generator: Fusion 360, Shaper Origin Export Add-In, Version 1.6.3  -->
<svg xmlns="http://www.w3.org/2000/svg" xmlns:xlink="http://www.w3.org/1999/xlink" xmlns:shaper="http://www.shapertools.com/namespaces/shaper" shaper:fusionaddin="version:1.6.3" width="22.0201457cm" height="28.1044496cm" version="1.1" x="0cm" y="0cm" viewBox="0 0 22.0201457 28.1044496" enable-background="new 0 0 22.0201457 28.1044496" xml:space="preserve"><path d="M14.150006,15.9673289 L14.150006,15.9673289 14.0139278,15.8792315 13.8784694,15.7910193 13.7436305,15.7026926 13.6094105,15.6142523 13.4758089,15.5256992 13.3428248,15.4370348 13.2104573,15.3482604 13.0787052,15.2593777 12.9475674,15.1703888 12.8170426,15.0812956 12.6871294,14.9921004 12.5578263,14.9028058 12.4291319,14.8134141 12.3010447,14.7239283 12.1735631,14.634351 12.0466855,14.5446851 11.9204105,14.4549337 11.7947364,14.3650998 11.6696619,14.2751865 11.5451855,14.1851969 11.2980215,14.0050015 11.0532349,13.8245386 10.8108176,13.6438329 10.5707638,13.4629082 10.3330707,13.2817868 10.0977383,13.1004891 9.8647707,12.9190329 9.6341759,12.7374332 9.4059669,12.5557014 9.2927625,12.4647885 9.1801616,12.373845 9.0681675,12.2828712 8.9567836,12.191867 8.8460138,12.1008321 8.7358624,12.0097658 8.6263339,11.918667 8.5174336,11.8275343 8.4091669,11.7363659 8.30154,11.6451596 8.1945593,11.5539129 8.0882318,11.4626225 7.9825653,11.371285 7.8775677,11.2798963 7.7732478,11.1884518 7.6696149,11.0969465 7.5666789,11.0053747 7.46445,10.9137305 7.3629392,10.8220074 7.2621578,10.7301983 7.1621175,10.638296 7.0628307,10.5462926 6.96431,10.45418 6.8665685,10.3619498 6.7696195,10.2695929 6.6734768,10.1771003 6.5781545,10.0844625 6.4836666,9.9916699 6.3900277,9.8987126 6.2972522,9.8055806 6.2053549,9.7122638 6.1143504,9.618752 6.0242535,9.5250349 5.935079,9.4311022 5.8468414,9.3369436 5.7595555,9.2425488 5.6732357,9.1479077 5.5878963,9.0530101 5.5035515,8.9578461 5.4202152,8.8624059 5.3379009,8.7666798 5.256622,8.6706584 5.1763915,8.5743327 5.0972221,8.4776936 5.0191258,8.3807327 4.9421146,8.2834416 4.8661995,8.1858126 4.7913915,8.0878381 4.7177007,7.9895111 4.6451366,7.890825 4.5737084,7.7917736 4.5034241,7.6923516 4.4342915,7.5925537 4.3663173,7.4923758 4.2995074,7.391814 4.2338668,7.2908653 4.1693999,7.1895275 4.1061098,7.0877989 4.0439988,6.9856788 3.9830682,6.8831673 3.9233182,6.780265 3.8647481,6.6769737 3.8073562,6.5732957 3.7511396,6.4692343 3.6960945,6.3647934 3.6422158,6.259978 3.5894977,6.1547938 3.537933,6.0492472 3.4875139,5.9433452 3.4382314,5.8370956 3.390076,5.7305066 3.343037,5.623587 3.2971035,5.516346 3.2522634,5.4087931 3.2085043,5.3009382 3.1658132,5.1927914 3.1241764,5.084363 3.0835798,4.9756634 3.044009,4.8667033 3.0054489,4.7574933 2.9678842,4.6480439 2.9312994,4.5383658 2.8956783,4.4284693 2.861005,4.3183649 2.8272629,4.2080626 2.7944356,4.0975722 2.7625064,3.9869033 2.7314586,3.8760651 2.7012754,3.7650664 2.67194,3.6539157 2.6434358,3.5426207 2.6157462,3.4311888 2.5888547,3.3196268 2.5627451,3.2079407 2.5374013,3.0961358 2.5128077,2.9842167 2.488949,2.8721869 2.46581,2.7600492 2.4433765,2.6478052 2.4216343,2.5354556 2.4005699,2.4229998 2.3801705,2.3104362 2.3604237,2.1977621 2.3413177,2.0849736 2.3228413,1.9720659 2.304984,1.8590328 2.2877359,1.7458674 2.2710876,1.6325615 2.2550306,1.5191059 2.2395568,1.4054903 2.2103298,1.1777343 2.1833542,0.9491968 2.1585853,0.7197723 2.1359853,0.48935 2.1254885,0.3737295 2.1155225,0.2578171 2.1060841,0.1415991 2.0971704,0.0250617 2.0887788,-0.0918085 2.0809068,-0.2090246 2.0735525,-0.326599 2.0667136,-0.4445436 2.0603885,-0.5628699 2.0545754,-0.6815883 2.0492729,-0.8007085 2.0444794,-0.9202394 2.0401935,-1.0401887 2.0364139,-1.1605631 2.0331394,-1.2813682 2.0303684,-1.4026082 2.0280998,-1.5242862 2.026332,-1.6464035 2.0250636,-1.76896 2.0242929,-1.891954 2.0240181,-2.0153819 2.0242374,-2.1392381 2.0249485,-2.2635152 2.0261491,-2.3882034 2.0278365,-2.513291 2.0300078,-2.6387636 2.0357891,-2.8907961 2.0434638,-3.1441413 2.0529976,-3.3986023 2.0643513,-3.6539441 2.0774798,-3.909895 2.0923336,-4.1661498 2.1088591,-4.4223745 2.126999,-4.6782106 2.1466935,-4.9332791 2.1678805,-5.1871848 2.190496,-5.4395191 2.2023191,-5.5649664 2.2144749,-5.6898633 2.226955,-5.8141565 2.2397511,-5.9377925 2.2528549,-6.0607176 2.2662582,-6.1828784 2.2799526,-6.3042214 2.29393,-6.4246934 2.3081821,-6.5442417 2.3227009,-6.6628138 2.3374784,-6.780358 2.3525066,-6.8968233 2.3677779,-7.0121594 2.3832845,-7.126317 2.399019,-7.2392479 2.4149742,-7.3509051 2.4311429,-7.461243 2.4475182,-7.5702173 2.4640936,-7.6777854 2.4808626,-7.7839063 2.4978191,-7.8885409 2.5149572,-7.9916517 2.5322714,-8.0932034 2.5497562,-8.1931624 2.5674068,-8.2914972 2.5852184,-8.3881786 2.6031867,-8.4831792 2.6213075,-8.5764741 2.6395772,-8.6680403 2.6579922,-8.7578573 2.6765495,-8.845906 2.6952462,-8.9321697 2.7140796,-9.016633 2.7330475,-9.0992824 2.7521475,-9.1801056 2.7713779,-9.2590921 2.7907369,-9.3362323 2.8102229,-9.411518 2.8298347,-9.4849422 2.849571,-9.5564988 2.8694307,-9.6261826 2.889413,-9.6939895 2.9095172,-9.7599162 2.9297426,-9.8239599 2.9500888,-9.8861188 2.9705553,-9.9463914 2.9911418,-10.0047769 3.0118481,-10.0612747 3.0326741,-10.1158847 3.0536196,-10.1686067 3.0746847,-10.2194409 3.0958692,-10.2683874 3.0958692,-10.2683874 3.1154498,-10.2415244 3.1371838,-10.2140033 3.1610716,-10.1858242 3.1871133,-10.1569876 3.2153086,-10.1274947 3.2456557,-10.0973477 3.2781516,-10.0665501 3.3127913,-10.0351068 3.3495675,-10.0030246 3.3884702,-9.9703122 3.429486,-9.9369806 3.4725982,-9.9030437 3.5177857,-9.8685182 3.5650232,-9.833424 3.6142798,-9.7977849 3.6655196,-9.7616285 3.7187005,-9.7249869 3.773774,-9.6878966 3.8306846,-9.6503993 3.8893695,-9.612542 3.9497577,-9.5743771 4.01177,-9.5359632 4.0753181,-9.497365 4.1403042,-9.4586538 4.2066203,-9.419908 4.2741482,-9.381213 4.3427584,-9.3426616 4.4123125,-9.3043528 4.4826662,-9.2663879 4.5536739,-9.228868 4.6251929,-9.1918892 4.6970871,-9.1555401 4.7692319,-9.1198977 4.8415176,-9.0850237 4.9138539,-9.0509616 4.9861731,-9.0177332 5.0584298,-8.9853397 5.130599,-8.9537631 5.2026742,-8.922968 5.2746654,-8.892904 5.4185065,-8.8347015 5.5624581,-8.7785166 5.7069986,-8.7235832 5.8527104,-8.6690464 5.9262102,-8.6416416 6.0002563,-8.6139879 6.0749404,-8.5859646 6.1503566,-8.5574499 6.2266,-8.5283219 6.3037665,-8.4984595 6.3819509,-8.4677439 6.4612461,-8.4360597 6.5417417,-8.403296 6.6235227,-8.3693479 6.7066686,-8.3341176 6.7912518,-8.2975157 6.8773367,-8.2594624 6.9649782,-8.2198887 7.0542211,-8.1787374 7.1450988,-8.1359641 7.2376322,-8.0915385 7.331829,-8.0454447 7.4276824,-7.9976833 7.5251703,-7.9482715 7.624254,-7.8972444 7.724878,-7.8446556 7.8269711,-7.7905757 7.9304495,-7.7350885 8.0352188,-7.6782886 8.1411777,-7.6202776 8.2482201,-7.5611611 8.3562382,-7.5010455 8.4651251,-7.4400345 8.5747777,-7.3782263 8.6850982,-7.3157116 8.7959942,-7.2525736 8.9073779,-7.1888887 9.0191657,-7.1247278 9.2436365,-6.995235 9.4687991,-6.8645709 9.6940762,-6.7331641 9.918912,-6.6014082 10.1427754,-6.4696606 10.3651652,-6.3382379 10.5856153,-6.2074113 10.6949777,-6.1422934 10.8036977,-6.0774051 10.9117273,-6.0127679 11.0190209,-5.9484008 11.1255344,-5.884321 11.2312258,-5.8205437 11.3360547,-5.7570823 11.4399823,-5.6939491 11.5429713,-5.6311547 11.644986,-5.5687086 11.7459922,-5.5066189 11.8459573,-5.4448927 11.9448504,-5.3835356 12.0426421,-5.3225524 12.1393047,-5.2619467 12.2348121,-5.201721 12.3291399,-5.1418771 12.4222653,-5.0824155 12.5141672,-5.0233363 12.6048259,-4.9646389 12.6942234,-4.906322 12.7823431,-4.848384 12.86917,-4.790823 12.9546904,-4.7336368 13.0388921,-4.6768232 13.1217644,-4.6203798 13.2032978,-4.5643047 13.2834845,-4.5085956 13.3623178,-4.4532506 13.4397928,-4.3982684 13.5159058,-4.3436474 13.5906546,-4.289387 13.5906546,-4.289387 13.5442114,-4.1021827 13.4981711,-3.9162581 13.4525339,-3.7316134 13.4073001,-3.5482495 13.36247,-3.3661667 13.318044,-3.1853657 13.2740224,-3.0058468 13.2304059,-2.8276099 13.1871948,-2.6506544 13.1443896,-2.4749793 13.1019908,-2.3005829 13.0599987,-2.1274624 13.0184138,-1.9556144 12.9772363,-1.7850342 12.9364664,-1.6157161 12.8961043,-1.4476529 12.85615,-1.2808361 12.8166033,-1.1152554 12.7774639,-0.9508991 12.7387313,-0.7877533 12.7004048,-0.6258023 12.6624836,-0.4650281 12.6249664,-0.3054105 12.587852,-0.1469271 12.5511386,0.0104472 12.5148243,0.16674 12.4789069,0.3219817 12.443384,0.4762055 12.4082527,0.6294476 12.3735098,0.7817476 12.3391515,0.9331486 12.3051738,1.0836972 12.2715722,1.233444 12.2383414,1.3824435 12.2054761,1.5307538 12.1729703,1.6784366 12.1408183,1.8255568 12.1090139,1.9721821 12.0464244,2.264231 11.9851574,2.5551701 11.9251763,2.845609 11.8664574,3.1361672 11.8089951,3.4274603 11.7528068,3.7200876 11.725203,3.8670817 11.6979368,4.0146208 11.6710186,4.1627703 11.6444612,4.311592 11.6182799,4.4611443 11.5924926,4.6114813 11.56712,4.7626525 11.5421858,4.9147024 11.5177168,5.06767 11.4937433,5.2215885 11.4702986,5.3764849 11.44742,5.5323799 11.4251479,5.6892875 11.4035265,5.8472148 11.3826037,6.0061619 11.3624313,6.1661213 11.3430642,6.3270788 11.3245609,6.4890135 11.3069827,6.6518987 11.2903936,6.8157016 11.27486,6.9803845 11.2604504,7.1459049 11.2472352,7.3122157 11.2352864,7.4792659 11.2246774,7.6470006 11.215483,7.8153617 11.2077787,7.9842877 11.2016408,8.1537145 11.1971462,8.3235755 11.194372,8.4938021 11.1933953,8.6643236 11.1942929,8.8350684 11.1971415,9.0059634 11.2020166,9.176935 11.2089932,9.3479093 11.2181448,9.5188121 11.2295435,9.6895698 11.2432598,9.8601096 11.2510084,9.9452752 11.259362,10.0303594 11.2683285,10.1153536 11.2779162,10.2002489 11.2881328,10.285037 11.2989861,10.3697095 11.3104835,10.454258 11.3226324,10.5386745 11.3354399,10.622951 11.3489129,10.7070798 11.3630583,10.7910533 11.3778824,10.8748641 11.3933916,10.9585049 11.409592,11.0419687 11.4264893,11.1252488 11.4440893,11.2083386 11.4623973,11.2912317 11.4814183,11.373922 11.5011572,11.4564037 11.5216188,11.538671 11.5428073,11.6207187 11.564727,11.7025414 11.5873818,11.7841342 11.6107754,11.8654922 11.6349114,11.946611 11.6597932,12.027486 11.6854239,12.1081132 11.7118065,12.1884884 11.7389438,12.2686078 11.7668383,12.3484677 11.7954927,12.4280646 11.824909,12.5073952 11.8550896,12.5864563 11.8860364,12.6652448 11.9177512,12.7437579 11.9502357,12.8219927 11.9834916,12.8999468 12.0175202,12.9776177 12.0523229,13.055003 12.0879008,13.1321006 12.124255,13.2089084 12.1613864,13.2854245 12.1992959,13.3616471 12.2379842,13.4375745 12.2774519,13.5132052 12.3176997,13.5885376 12.3587278,13.6635705 12.4005367,13.7383026 12.4431266,13.8127327 12.4864978,13.8868598 12.5306504,13.960683 12.5755843,14.0342013 12.6212997,14.1074139 12.6677965,14.1803202 12.7150745,14.2529195 12.7631335,14.3252112 12.8119734,14.3971948 12.8615939,14.4688699 12.9119948,14.5402361 12.9631757,14.6112931 13.0151362,14.6820405 13.067876,14.7524783 13.1213948,14.8226061 13.1756921,14.8924238 13.2307674,14.9619314 13.2866205,15.0311287 13.3432508,15.1000158 13.400658,15.1685926 13.4588416,15.2368591 13.5178013,15.3048154 13.5775365,15.3724615 13.6380471,15.4397975 13.6993326,15.5068233 13.7613927,15.5735393 13.8242271,15.6399453 13.8878355,15.7060414 13.9522178,15.7718278 14.0173737,15.8373045 14.0833031,15.9024715 14.150006,15.9673289z" transform="matrix(1,0,0,-1,-1.5922394,17.8360622)" stroke="rgb(100,100,100)" stroke-width="0.0010cm" stroke-linecap="round" stroke-linejoin="round" fill="none" shaper:cutDepth="0" /><path d="M2.5508335,-8.1992374 L2.5508335,-8.1992374 2.5185522,-8.0745537 2.4868468,-7.9505248 2.4557175,-7.8271508 2.4251643,-7.7044317 2.3951874,-7.5823675 2.3657867,-7.4609582 2.3369624,-7.3402038 2.3087145,-7.2201039 2.2810432,-7.1006582 2.2539484,-6.9818663 2.22743,-6.8637275 2.2014881,-6.7462409 2.1761223,-6.6294054 2.1513326,-6.5132197 2.1271185,-6.3976821 2.1034797,-6.2827908 2.0804157,-6.1685435 2.0579258,-6.0549375 2.0360092,-5.9419699 2.0146651,-5.8296374 1.9938924,-5.717936 1.97369,-5.6068616 1.9540564,-5.4964093 1.9349901,-5.3865739 1.9164895,-5.2773497 1.8985525,-5.1687303 1.8811771,-5.0607087 1.864361,-4.9532775 1.8481014,-4.8464284 1.8323957,-4.7401527 1.8172408,-4.6344407 1.8026334,-4.5292824 1.7885697,-4.4246666 1.7750461,-4.3205816 1.7620583,-4.2170149 1.7496019,-4.1139533 1.7376721,-4.0113823 1.7262638,-3.9092871 1.7153717,-3.8076518 1.70499,-3.7064595 1.6951128,-3.605693 1.6857339,-3.505334 1.6768471,-3.405364 1.6684458,-3.3057635 1.6530732,-3.1075917 1.6395621,-2.9106556 1.6278576,-2.7147867 1.6179056,-2.5198134 1.609653,-2.3255629 1.6030492,-2.1318627 1.5980467,-1.9385426 1.5946021,-1.7454365 1.5926771,-1.5523841 1.5922394,-1.359233 1.5932639,-1.1658407 1.5957339,-0.972077 1.5996416,-0.7778254 1.6049884,-0.5829828 1.6117845,-0.3874599 1.620049,-0.1911798 1.629809,0.005922 1.6410996,0.2038992 1.6539627,0.4027959 1.668447,0.6026476 1.6846072,0.8034822 1.7025036,1.0053208 1.7222016,1.208179 1.7437712,1.4120669 1.7672868,1.6169913 1.7928263,1.8229562 1.8204707,2.0299643 1.8351083,2.1338601 1.8503036,2.2380175 1.8660675,2.3424365 1.8824109,2.4471174 1.8993448,2.5520603 1.9168804,2.6572654 1.9350287,2.7627329 1.953801,2.8684629 1.9732088,2.9744553 1.9932633,3.0807101 2.013976,3.187227 2.0353583,3.2940056 2.0574218,3.4010453 2.0801779,3.5083451 2.1036382,3.6159038 2.1278142,3.7237199 2.1527174,3.8317918 2.1783594,3.940117 2.2047517,4.0486932 2.2319056,4.1575173 2.2598326,4.2665859 2.2885441,4.3758952 2.3180514,4.4854408 2.3483657,4.5952178 2.3794981,4.7052209 2.4114598,4.815444 2.4442617,4.9258806 2.4779146,5.0365237 2.5124294,5.1473652 2.5478166,5.2583968 2.5840867,5.3696093 2.6212501,5.4809925 2.659317,5.5925359 2.6982973,5.7042278 2.7382011,5.8160556 2.7790378,5.9280061 2.8208172,6.040065 2.8635484,6.1522172 2.9072405,6.2644468 2.9519023,6.3767371 2.9975426,6.4890705 3.0441696,6.6014287 3.0917914,6.7137926 3.140416,6.8261426 3.1900507,6.9384582 3.2407029,7.0507185 3.2923795,7.162902 3.345087,7.2749866 3.3988317,7.3869502 3.4536196,7.4987698 3.509456,7.6104227 3.5663462,7.7218854 3.6242949,7.8331345 3.6833064,7.9441465 3.7433847,8.0548976 3.8045331,8.1653641 3.8667547,8.275522 3.930052,8.3853478 3.9944271,8.4948177 4.0598815,8.6039081 4.1264163,8.7125958 4.194032,8.8208576 4.2627286,8.9286707 4.3325055,9.0360127 4.4033617,9.1428613 4.4752954,9.2491949 4.5483044,9.3549924 4.6223857,9.4602331 4.6975359,9.564897 4.7737506,9.6689647 4.8510252,9.7724175 4.929354,9.8752376 5.0087308,9.9774079 5.0891487,10.078912 5.1706001,10.1797346 5.2530766,10.2798613 5.3365692,10.3792785 5.421068,10.4779738 5.5065626,10.5759356 5.5930417,10.6731535 5.6804933,10.7696181 5.7689049,10.8653209 5.8582632,10.9602543 5.9485546,11.0544116 6.0397646,11.1477869 6.1318786,11.2403753 6.2248813,11.3321724 6.318757,11.4231747 6.4134897,11.5133793 6.509063,11.6027841 6.6054601,11.6913876 6.702664,11.7791889 6.8006574,11.8661877 6.8994229,11.9523844 6.9989425,12.0377797 7.0991985,12.1223751 7.2001729,12.2061723 7.3018474,12.2891737 7.404204,12.3713818 7.5072244,12.4527998 7.6108904,12.5334311 7.715184,12.6132794 7.8200869,12.6923488 7.9255813,12.7706435 8.0316494,12.848168 8.1382733,12.9249272 8.2454357,13.0009259 8.3531193,13.0761691 8.4613072,13.1506622 8.5699826,13.2244103 8.6791291,13.2974188 8.7887309,13.3696931 8.8987722,13.4412386 9.0092381,13.5120605 9.120114,13.5821641 9.2313856,13.6515545 9.3430395,13.7202367 9.4550626,13.7882156 9.5674426,13.8554959 9.6801675,13.9220822 9.7932261,13.9879788 9.9066074,14.0531901 10.0203015,14.11772 10.1342985,14.1815724 10.2485895,14.2447509 10.3631658,14.3072592 10.4780194,14.3691005 10.5931427,14.430278 10.7085286,14.4907948 10.8241704,14.5506537 10.9400619,14.6098575 11.0561971,14.6684087 11.1725708,14.7263099 11.2891777,14.7835633 11.4060132,14.8401713 11.5230729,14.8961358 11.640353,14.9514589 11.7578498,15.0061422 11.8755599,15.0601876 11.9934803,15.1135967 12.1116083,15.1663707 12.2299414,15.2185112 12.3484775,15.2700194 12.4672146,15.3208964 12.586151,15.3711433 12.7052852,15.420761 12.8246159,15.4697504 12.9441419,15.5181122 13.0638624,15.5658472 13.1837765,15.6129559 13.3038835,15.6594389 13.4241831,15.7052967 13.5446747,15.7505295 13.665358,15.7951377 13.786233,15.8391216 13.9072993,15.8824814 14.028557,15.9252171 14.150006,15.9673289" transform="matrix(1,0,0,-1,-1.5922394,17.8360622)" stroke="rgb(100,100,100)" stroke-width="0.0010cm" stroke-linecap="round" stroke-linejoin="round" fill="none" shaper:cutDepth="0" /><path d="M14.6878411,-7.3518306 L14.6100187,17.8360622 16.3207155,16.4858639 16.8008776,14.2982427 18.2576851,6.2548218 20.3142485,-0.0432543 21.9369166,-4.2871555 21.9369166,-4.2871555 21.9850833,-4.3909893 22.0334054,-4.4940819 22.0818845,-4.596427 22.1305229,-4.6980134 22.179324,-4.7988242 22.2282927,-4.8988365 22.2774353,-4.9980205 22.3267595,-5.0963392 22.3762748,-5.193748 22.425992,-5.2901944 22.4759239,-5.3856179 22.5260849,-5.4799498 22.5764912,-5.5731132 22.6271608,-5.6650225 22.6781133,-5.7555837 22.7293701,-5.8446948 22.7809544,-5.9322462 22.8328905,-6.0181213 22.8852043,-6.1021969 22.9379229,-6.1843438 22.9910746,-6.2644276 23.0446884,-6.3423098 23.0716778,-6.3803814 23.0987938,-6.41785 23.12604,-6.4546979 23.1534202,-6.4909077 23.180938,-6.5264621 23.2085969,-6.561344 23.2364004,-6.5955367 23.2643521,-6.6290238 23.2924553,-6.6617891 23.3207132,-6.6938174 23.3491289,-6.7250935 23.3777054,-6.7556037 23.4064455,-6.7853345 23.4353517,-6.8142741 23.4644263,-6.8424113 23.4936714,-6.8697366 23.5230885,-6.8962418 23.5526792,-6.9219201 23.5824445,-6.9467667 23.6123851,-6.9707783 14.6878411,-7.3518306z" transform="matrix(1,0,0,-1,-1.5922394,17.8360622)" stroke="rgb(100,100,100)" stroke-width="0.0010cm" stroke-linecap="round" stroke-linejoin="round" fill="none" shaper:cutDepth="0" /><path d="M14.6317983,10.786907 L15.2988433,4.4087323 16.160427,-1.8856483 17.8871844,-7.2152279" transform="matrix(1,0,0,-1,-1.5922394,17.8360622)" stroke="rgb(100,100,100)" stroke-width="0.0010cm" stroke-linecap="round" stroke-linejoin="round" fill="none" shaper:cutDepth="0" /></svg>